<svg width="113" height="30" viewBox="0 0 113 30" fill="none" xmlns="http://www.w3.org/2000/svg">
<g clip-path="url(#clip0_2109_2061)">
<path d="M6.9 7.84C8.38 7.84 9.67333 8.14 10.78 8.74C11.9 9.34 12.76 10.1733 13.36 11.24C13.96 12.3067 14.26 13.52 14.26 14.88C14.26 16.2267 13.96 17.44 13.36 18.52C12.76 19.6 11.9 20.4533 10.78 21.08C9.67333 21.6933 8.38 22 6.9 22H1V7.84H6.9ZM6.5 18.04C7.5 18.04 8.29333 17.7667 8.88 17.22C9.46667 16.6733 9.76 15.8933 9.76 14.88C9.76 13.8667 9.46667 13.0867 8.88 12.54C8.29333 11.9933 7.5 11.72 6.5 11.72H5.44V18.04H6.5ZM15.0233 16.36C15.0233 15.1733 15.2233 14.1467 15.6233 13.28C16.0366 12.4 16.5966 11.7333 17.3033 11.28C18.0099 10.8133 18.8033 10.58 19.6833 10.58C20.4166 10.58 21.0499 10.7333 21.5833 11.04C22.1166 11.3333 22.5233 11.74 22.8033 12.26V10.72H27.2233V22H22.8033V20.46C22.5233 20.98 22.1166 21.3933 21.5833 21.7C21.0499 21.9933 20.4166 22.14 19.6833 22.14C18.8033 22.14 18.0099 21.9133 17.3033 21.46C16.5966 20.9933 16.0366 20.3267 15.6233 19.46C15.2233 18.58 15.0233 17.5467 15.0233 16.36ZM22.8033 16.36C22.8033 15.76 22.6499 15.2933 22.3433 14.96C22.0366 14.6267 21.6433 14.46 21.1633 14.46C20.6833 14.46 20.2899 14.6267 19.9833 14.96C19.6766 15.2933 19.5233 15.76 19.5233 16.36C19.5233 16.96 19.6766 17.4267 19.9833 17.76C20.2899 18.0933 20.6833 18.26 21.1633 18.26C21.6433 18.26 22.0366 18.0933 22.3433 17.76C22.6499 17.4267 22.8033 16.96 22.8033 16.36ZM36.877 10.64C38.1704 10.64 39.177 11.0733 39.897 11.94C40.6304 12.8067 40.997 13.98 40.997 15.46V22H36.577V16.02C36.577 15.4867 36.4304 15.0667 36.137 14.76C35.857 14.44 35.477 14.28 34.997 14.28C34.5037 14.28 34.117 14.44 33.837 14.76C33.557 15.0667 33.417 15.4867 33.417 16.02V22H28.977V10.72H33.417V12.44C33.7637 11.9067 34.2237 11.4733 34.797 11.14C35.3837 10.8067 36.077 10.64 36.877 10.64ZM49.9023 22L47.1223 17.5V22H42.6823V7.2H47.1223V14.94L49.9423 10.72H55.1023L50.8823 16.4L55.2023 22H49.9023Z" fill="url(#paint0_linear_2109_2061)"/>
<path d="M58.158 22.16C57.3846 22.16 56.7646 21.9533 56.298 21.54C55.8313 21.1267 55.598 20.6067 55.598 19.98C55.598 19.34 55.8313 18.8133 56.298 18.4C56.7646 17.9733 57.3846 17.76 58.158 17.76C58.918 17.76 59.5313 17.9733 59.998 18.4C60.4646 18.8133 60.698 19.34 60.698 19.98C60.698 20.6067 60.4646 21.1267 59.998 21.54C59.5313 21.9533 58.918 22.16 58.158 22.16ZM69.1247 18.22V22H67.4447C64.3514 22 62.8047 20.46 62.8047 17.38V14.42H61.4047V10.72H62.8047V8H67.2447V10.72H69.0847V14.42H67.2447V17.46C67.2447 17.7267 67.3047 17.92 67.4247 18.04C67.558 18.16 67.7714 18.22 68.0647 18.22H69.1247ZM75.9356 22.14C74.8023 22.14 73.7823 21.9067 72.8756 21.44C71.969 20.9733 71.2556 20.3067 70.7356 19.44C70.229 18.56 69.9756 17.5333 69.9756 16.36C69.9756 15.1867 70.229 14.1667 70.7356 13.3C71.2556 12.42 71.969 11.7467 72.8756 11.28C73.7823 10.8133 74.8023 10.58 75.9356 10.58C77.069 10.58 78.089 10.8133 78.9956 11.28C79.9023 11.7467 80.609 12.42 81.1156 13.3C81.6356 14.1667 81.8956 15.1867 81.8956 16.36C81.8956 17.5333 81.6356 18.56 81.1156 19.44C80.609 20.3067 79.9023 20.9733 78.9956 21.44C78.089 21.9067 77.069 22.14 75.9356 22.14ZM75.9356 18.3C76.349 18.3 76.6956 18.14 76.9756 17.82C77.2556 17.4867 77.3956 17 77.3956 16.36C77.3956 15.72 77.2556 15.24 76.9756 14.92C76.6956 14.5867 76.349 14.42 75.9356 14.42C75.5223 14.42 75.1756 14.5867 74.8956 14.92C74.6156 15.24 74.4756 15.72 74.4756 16.36C74.4756 17 74.609 17.4867 74.8756 17.82C75.1556 18.14 75.509 18.3 75.9356 18.3ZM88.4105 22.14C87.2771 22.14 86.2571 21.9067 85.3505 21.44C84.4438 20.9733 83.7305 20.3067 83.2105 19.44C82.7038 18.56 82.4505 17.5333 82.4505 16.36C82.4505 15.1867 82.7038 14.1667 83.2105 13.3C83.7305 12.42 84.4438 11.7467 85.3505 11.28C86.2571 10.8133 87.2771 10.58 88.4105 10.58C89.5438 10.58 90.5638 10.8133 91.4705 11.28C92.3771 11.7467 93.0838 12.42 93.5905 13.3C94.1105 14.1667 94.3705 15.1867 94.3705 16.36C94.3705 17.5333 94.1105 18.56 93.5905 19.44C93.0838 20.3067 92.3771 20.9733 91.4705 21.44C90.5638 21.9067 89.5438 22.14 88.4105 22.14ZM88.4105 18.3C88.8238 18.3 89.1705 18.14 89.4505 17.82C89.7305 17.4867 89.8705 17 89.8705 16.36C89.8705 15.72 89.7305 15.24 89.4505 14.92C89.1705 14.5867 88.8238 14.42 88.4105 14.42C87.9971 14.42 87.6505 14.5867 87.3705 14.92C87.0905 15.24 86.9505 15.72 86.9505 16.36C86.9505 17 87.0838 17.4867 87.3505 17.82C87.6305 18.14 87.9838 18.3 88.4105 18.3ZM99.9653 7.2V22H95.5253V7.2H99.9653ZM106.751 22.14C105.684 22.14 104.737 21.9667 103.911 21.62C103.097 21.2733 102.451 20.7933 101.971 20.18C101.491 19.5667 101.217 18.8733 101.151 18.1H105.411C105.464 18.4333 105.604 18.68 105.831 18.84C106.071 19 106.371 19.08 106.731 19.08C106.957 19.08 107.137 19.0333 107.271 18.94C107.404 18.8333 107.471 18.7067 107.471 18.56C107.471 18.3067 107.331 18.1267 107.051 18.02C106.771 17.9133 106.297 17.7933 105.631 17.66C104.817 17.5 104.144 17.3267 103.611 17.14C103.091 16.9533 102.631 16.6333 102.231 16.18C101.844 15.7267 101.651 15.1 101.651 14.3C101.651 13.6067 101.831 12.98 102.191 12.42C102.564 11.8467 103.111 11.4 103.831 11.08C104.551 10.7467 105.424 10.58 106.451 10.58C107.971 10.58 109.157 10.9533 110.011 11.7C110.877 12.4467 111.397 13.42 111.571 14.62H107.631C107.564 14.3133 107.424 14.08 107.211 13.92C106.997 13.7467 106.711 13.66 106.351 13.66C106.124 13.66 105.951 13.7067 105.831 13.8C105.711 13.88 105.651 14.0067 105.651 14.18C105.651 14.4067 105.791 14.58 106.071 14.7C106.351 14.8067 106.797 14.92 107.411 15.04C108.224 15.2 108.911 15.38 109.471 15.58C110.031 15.78 110.517 16.1267 110.931 16.62C111.344 17.1 111.551 17.7667 111.551 18.62C111.551 19.2867 111.357 19.8867 110.971 20.42C110.584 20.9533 110.024 21.3733 109.291 21.68C108.571 21.9867 107.724 22.14 106.751 22.14Z" fill="white"/>
</g>
<defs>
<linearGradient id="paint0_linear_2109_2061" x1="0" y1="15" x2="47.7516" y2="15" gradientUnits="userSpaceOnUse">
<stop stop-color="#FF8811"/>
<stop offset="1" stop-color="#E9190F"/>
</linearGradient>
<clipPath id="clip0_2109_2061">
<rect width="113" height="30" fill="white"/>
</clipPath>
</defs>
</svg>
