<svg width="540" height="145" viewBox="0 0 540 145" fill="none" xmlns="http://www.w3.org/2000/svg">
<g clip-path="url(#clip0_2109_2048)">
<path d="M33.12 38.4832C40.224 38.4832 46.432 39.9232 51.744 42.8032C57.12 45.6832 61.248 49.6832 64.128 54.8032C67.008 59.9232 68.448 65.7472 68.448 72.2752C68.448 78.7392 67.008 84.5632 64.128 89.7472C61.248 94.9312 57.12 99.0272 51.744 102.035C46.432 104.979 40.224 106.451 33.12 106.451H4.8V38.4832H33.12ZM31.2 87.4432C36 87.4432 39.808 86.1312 42.624 83.5072C45.44 80.8832 46.848 77.1392 46.848 72.2752C46.848 67.4112 45.44 63.6672 42.624 61.0432C39.808 58.4192 36 57.1072 31.2 57.1072H26.112V87.4432H31.2ZM72.1117 79.3792C72.1117 73.6832 73.0717 68.7552 74.9917 64.5952C76.9757 60.3712 79.6637 57.1712 83.0557 54.9952C86.4478 52.7552 90.2558 51.6352 94.4798 51.6352C97.9998 51.6352 101.04 52.3712 103.6 53.8432C106.16 55.2512 108.112 57.2032 109.456 59.6992V52.3072H130.672V106.451H109.456V99.0592C108.112 101.555 106.16 103.539 103.6 105.011C101.04 106.419 97.9998 107.123 94.4798 107.123C90.2558 107.123 86.4478 106.035 83.0557 103.859C79.6637 101.619 76.9757 98.4192 74.9917 94.2592C73.0717 90.0352 72.1117 85.0752 72.1117 79.3792ZM109.456 79.3792C109.456 76.4992 108.72 74.2592 107.248 72.6592C105.776 71.0592 103.888 70.2592 101.584 70.2592C99.2798 70.2592 97.3918 71.0592 95.9198 72.6592C94.4478 74.2592 93.7118 76.4992 93.7118 79.3792C93.7118 82.2592 94.4478 84.4992 95.9198 86.0992C97.3918 87.6992 99.2798 88.4992 101.584 88.4992C103.888 88.4992 105.776 87.6992 107.248 86.0992C108.72 84.4992 109.456 82.2592 109.456 79.3792ZM177.01 51.9232C183.218 51.9232 188.05 54.0032 191.506 58.1632C195.026 62.3232 196.786 67.9552 196.786 75.0592V106.451H175.57V77.7472C175.57 75.1872 174.866 73.1712 173.458 71.6992C172.114 70.1632 170.29 69.3952 167.986 69.3952C165.618 69.3952 163.762 70.1632 162.418 71.6992C161.074 73.1712 160.402 75.1872 160.402 77.7472V106.451H139.09V52.3072H160.402V60.5632C162.066 58.0032 164.274 55.9232 167.026 54.3232C169.842 52.7232 173.17 51.9232 177.01 51.9232ZM239.531 106.451L226.187 84.8512V106.451H204.875V35.4112H226.187V72.5632L239.723 52.3072H264.491L244.235 79.5712L264.971 106.451H239.531Z" fill="url(#paint0_linear_2109_2048)"/>
<path d="M279.158 107.219C275.446 107.219 272.47 106.227 270.23 104.243C267.99 102.259 266.87 99.7632 266.87 96.7552C266.87 93.6832 267.99 91.1552 270.23 89.1712C272.47 87.1232 275.446 86.0992 279.158 86.0992C282.806 86.0992 285.75 87.1232 287.99 89.1712C290.23 91.1552 291.35 93.6832 291.35 96.7552C291.35 99.7632 290.23 102.259 287.99 104.243C285.75 106.227 282.806 107.219 279.158 107.219ZM331.798 88.3072V106.451H323.734C308.886 106.451 301.462 99.0592 301.462 84.2752V70.0672H294.742V52.3072H301.462V39.2512H322.774V52.3072H331.606V70.0672H322.774V84.6592C322.774 85.9392 323.062 86.8672 323.638 87.4432C324.278 88.0192 325.302 88.3072 326.71 88.3072H331.798ZM364.491 107.123C359.051 107.123 354.155 106.003 349.803 103.763C345.451 101.523 342.027 98.3232 339.531 94.1632C337.099 89.9392 335.883 85.0112 335.883 79.3792C335.883 73.7472 337.099 68.8512 339.531 64.6912C342.027 60.4672 345.451 57.2352 349.803 54.9952C354.155 52.7552 359.051 51.6352 364.491 51.6352C369.931 51.6352 374.827 52.7552 379.179 54.9952C383.531 57.2352 386.923 60.4672 389.355 64.6912C391.851 68.8512 393.099 73.7472 393.099 79.3792C393.099 85.0112 391.851 89.9392 389.355 94.1632C386.923 98.3232 383.531 101.523 379.179 103.763C374.827 106.003 369.931 107.123 364.491 107.123ZM364.491 88.6912C366.475 88.6912 368.139 87.9232 369.483 86.3872C370.827 84.7872 371.499 82.4512 371.499 79.3792C371.499 76.3072 370.827 74.0032 369.483 72.4672C368.139 70.8672 366.475 70.0672 364.491 70.0672C362.507 70.0672 360.843 70.8672 359.499 72.4672C358.155 74.0032 357.483 76.3072 357.483 79.3792C357.483 82.4512 358.123 84.7872 359.403 86.3872C360.747 87.9232 362.443 88.6912 364.491 88.6912ZM424.37 107.123C418.93 107.123 414.034 106.003 409.682 103.763C405.33 101.523 401.906 98.3232 399.41 94.1632C396.978 89.9392 395.762 85.0112 395.762 79.3792C395.762 73.7472 396.978 68.8512 399.41 64.6912C401.906 60.4672 405.33 57.2352 409.682 54.9952C414.034 52.7552 418.93 51.6352 424.37 51.6352C429.81 51.6352 434.706 52.7552 439.058 54.9952C443.41 57.2352 446.802 60.4672 449.234 64.6912C451.73 68.8512 452.978 73.7472 452.978 79.3792C452.978 85.0112 451.73 89.9392 449.234 94.1632C446.802 98.3232 443.41 101.523 439.058 103.763C434.706 106.003 429.81 107.123 424.37 107.123ZM424.37 88.6912C426.354 88.6912 428.018 87.9232 429.362 86.3872C430.706 84.7872 431.378 82.4512 431.378 79.3792C431.378 76.3072 430.706 74.0032 429.362 72.4672C428.018 70.8672 426.354 70.0672 424.37 70.0672C422.386 70.0672 420.722 70.8672 419.378 72.4672C418.034 74.0032 417.362 76.3072 417.362 79.3792C417.362 82.4512 418.002 84.7872 419.282 86.3872C420.626 87.9232 422.322 88.6912 424.37 88.6912ZM479.833 35.4112V106.451H458.521V35.4112H479.833ZM512.403 107.123C507.283 107.123 502.739 106.291 498.771 104.627C494.867 102.963 491.763 100.659 489.459 97.7152C487.155 94.7712 485.843 91.4432 485.523 87.7312H505.971C506.227 89.3312 506.899 90.5152 507.987 91.2832C509.139 92.0512 510.579 92.4352 512.307 92.4352C513.395 92.4352 514.259 92.2112 514.899 91.7632C515.539 91.2512 515.859 90.6432 515.859 89.9392C515.859 88.7232 515.187 87.8592 513.843 87.3472C512.499 86.8352 510.227 86.2592 507.027 85.6192C503.123 84.8512 499.891 84.0192 497.331 83.1232C494.835 82.2272 492.627 80.6912 490.707 78.5152C488.851 76.3392 487.923 73.3312 487.923 69.4912C487.923 66.1632 488.787 63.1552 490.515 60.4672C492.307 57.7152 494.931 55.5712 498.387 54.0352C501.843 52.4352 506.035 51.6352 510.963 51.6352C518.259 51.6352 523.955 53.4272 528.051 57.0112C532.211 60.5952 534.707 65.2672 535.539 71.0272H516.627C516.307 69.5552 515.635 68.4352 514.611 67.6672C513.587 66.8352 512.211 66.4192 510.483 66.4192C509.395 66.4192 508.563 66.6432 507.987 67.0912C507.411 67.4752 507.123 68.0832 507.123 68.9152C507.123 70.0032 507.795 70.8352 509.139 71.4112C510.483 71.9232 512.627 72.4672 515.571 73.0432C519.475 73.8112 522.771 74.6752 525.459 75.6352C528.147 76.5952 530.483 78.2592 532.467 80.6272C534.451 82.9312 535.443 86.1312 535.443 90.2272C535.443 93.4272 534.515 96.3072 532.659 98.8672C530.803 101.427 528.115 103.443 524.595 104.915C521.139 106.387 517.075 107.123 512.403 107.123Z" fill="#0F172A"/>
</g>
<defs>
<linearGradient id="paint0_linear_2109_2048" x1="0" y1="72.4512" x2="228.194" y2="72.4512" gradientUnits="userSpaceOnUse">
<stop stop-color="#FF8811"/>
<stop offset="1" stop-color="#E9190F"/>
</linearGradient>
<clipPath id="clip0_2109_2048">
<rect width="540" height="144" fill="white" transform="translate(0 0.451233)"/>
</clipPath>
</defs>
</svg>
