<svg width="240" height="240" viewBox="0 0 240 240" fill="none" xmlns="http://www.w3.org/2000/svg">
<g opacity="0.1">
<path d="M70 73V76C70 76.2652 69.8946 76.5196 69.7071 76.7071C69.5196 76.8946 69.2652 77 69 77H67C66.7348 77 66.4804 76.8946 66.2929 76.7071C66.1054 76.5196 66 76.2652 66 76V73M68 59L72 63L70 64L74 68L71 69L75 73H61L65 69L62 68L66 64L64 63L68 59Z" stroke="#FF8811" stroke-width="2" stroke-linecap="round" stroke-linejoin="round"/>
<path d="M152.69 63.4402C151.597 64.708 150.998 66.3266 151 68.0002C150.997 69.6787 151.601 71.3018 152.699 72.5712" stroke="#FF8811" stroke-width="2" stroke-linecap="round" stroke-linejoin="round"/>
<path d="M138 65.5041C145.715 74.1511 152.75 75.7691 158 68.0021C152.75 60.2411 145.715 61.8601 138 70.5061M154 67.0001V67.0101" stroke="#FF8811" stroke-width="2" stroke-linecap="round" stroke-linejoin="round"/>
<path d="M147.5 66.5C146.833 67.5 146.833 68.5 147.5 69.5" stroke="#FF8811" stroke-width="2" stroke-linecap="round" stroke-linejoin="round"/>
<path d="M225 69L223.5 67.5M232 70L230 68M219 77C219 77 228.834 73.511 231.684 70.66C232.525 69.8186 232.997 68.6776 232.997 67.488C232.997 66.2984 232.525 65.1574 231.684 64.316C231.268 63.8994 230.773 63.5689 230.229 63.3434C229.685 63.118 229.102 63.0019 228.513 63.0019C227.924 63.0019 227.341 63.118 226.797 63.3434C226.253 63.5689 225.758 63.8994 225.342 64.316C222.482 67.177 218.995 77.005 218.995 77.005L219 77ZM238 64C238 64 236.86 62 235 62C233.594 62 232 64 232 64C232 64 233.14 66 235 66C236.86 66 238 64 238 64Z" stroke="#FF8811" stroke-width="2" stroke-linecap="round" stroke-linejoin="round"/>
<path d="M232 58C232 58 230 59.14 230 61C230 62.86 232 64 232 64C232 64 234 62.423 234 61C234 59.14 232 58 232 58Z" stroke="#FF8811" stroke-width="2" stroke-linecap="round" stroke-linejoin="round"/>
<path d="M62 148C62 149.591 62.6321 151.117 63.7574 152.243C64.8826 153.368 66.4087 154 68 154C69.5913 154 71.1174 153.368 72.2426 152.243C73.3679 151.117 74 149.591 74 148C74 146.409 73.3679 144.883 72.2426 143.757C71.1174 142.632 69.5913 142 68 142C66.4087 142 64.8826 142.632 63.7574 143.757C62.6321 144.883 62 146.409 62 148Z" stroke="#FF8811" stroke-width="2" stroke-linecap="round" stroke-linejoin="round"/>
<path d="M64 158L68 148L72 158M59 144C59 144.53 59.2107 145.039 59.5858 145.414C59.9609 145.789 60.4696 146 61 146C61.5304 146 62.0391 145.789 62.4142 145.414C62.7893 145.039 63 144.53 63 144C63 143.47 62.7893 142.961 62.4142 142.586C62.0391 142.211 61.5304 142 61 142C60.4696 142 59.9609 142.211 59.5858 142.586C59.2107 142.961 59 143.47 59 144ZM66 140C66 140.53 66.2107 141.039 66.5858 141.414C66.9609 141.789 67.4696 142 68 142C68.5304 142 69.0391 141.789 69.4142 141.414C69.7893 141.039 70 140.53 70 140C70 139.47 69.7893 138.961 69.4142 138.586C69.0391 138.211 68.5304 138 68 138C67.4696 138 66.9609 138.211 66.5858 138.586C66.2107 138.961 66 139.47 66 140ZM73 144C73 144.53 73.2107 145.039 73.5858 145.414C73.9609 145.789 74.4696 146 75 146C75.5304 146 76.0391 145.789 76.4142 145.414C76.7893 145.039 77 144.53 77 144C77 143.47 76.7893 142.961 76.4142 142.586C76.0391 142.211 75.5304 142 75 142C74.4696 142 73.9609 142.211 73.5858 142.586C73.2107 142.961 73 143.47 73 144ZM59 152C59 152.53 59.2107 153.039 59.5858 153.414C59.9609 153.789 60.4696 154 61 154C61.5304 154 62.0391 153.789 62.4142 153.414C62.7893 153.039 63 152.53 63 152C63 151.47 62.7893 150.961 62.4142 150.586C62.0391 150.211 61.5304 150 61 150C60.4696 150 59.9609 150.211 59.5858 150.586C59.2107 150.961 59 151.47 59 152ZM73 152C73 152.53 73.2107 153.039 73.5858 153.414C73.9609 153.789 74.4696 154 75 154C75.5304 154 76.0391 153.789 76.4142 153.414C76.7893 153.039 77 152.53 77 152C77 151.47 76.7893 150.961 76.4142 150.586C76.0391 150.211 75.5304 150 75 150C74.4696 150 73.9609 150.211 73.5858 150.586C73.2107 150.961 73 151.47 73 152Z" stroke="#FF8811" stroke-width="2" stroke-linecap="round" stroke-linejoin="round"/>
<path d="M146 156C146 155.735 146.105 155.48 146.293 155.293C146.48 155.105 146.735 155 147 155H149C149.265 155 149.52 155.105 149.707 155.293C149.895 155.48 150 155.735 150 156V157C150 157.265 149.895 157.52 149.707 157.707C149.52 157.895 149.265 158 149 158H147C146.735 158 146.48 157.895 146.293 157.707C146.105 157.52 146 157.265 146 157V156ZM148 152C151.314 152 154 147.314 154 144C154 142.409 153.368 140.883 152.243 139.757C151.117 138.632 149.591 138 148 138C146.409 138 144.883 138.632 143.757 139.757C142.632 140.883 142 142.409 142 144C142 147.314 144.686 152 148 152Z" stroke="#FF8811" stroke-width="2" stroke-linecap="round" stroke-linejoin="round"/>
<path d="M146 145C146 146.857 146.211 148.637 146.586 149.95C146.961 151.263 147.47 152 148 152C148.53 152 149.039 151.263 149.414 149.95C149.789 148.637 150 146.857 150 145C150 143.143 149.789 141.363 149.414 140.05C149.039 138.737 148.53 138 148 138C147.47 138 146.961 138.737 146.586 140.05C146.211 141.363 146 143.143 146 145Z" stroke="#FF8811" stroke-width="2" stroke-linecap="round" stroke-linejoin="round"/>
<path d="M233.286 157.09C232.159 157.091 230.397 156.219 227.998 154.475C225.601 156.22 223.838 157.092 222.71 157.091C220.893 157.091 220.728 154.824 222.215 150.291C215.956 145.774 216.667 143.516 224.35 143.516H224.426C225.616 139.839 226.807 138 228 138C229.19 138 230.381 139.839 231.574 143.516H231.65C239.333 143.516 240.044 145.774 233.783 150.29C235.27 154.825 235.104 157.091 233.286 157.09Z" stroke="#FF8811" stroke-width="2" stroke-linecap="round" stroke-linejoin="round"/>
<path d="M62 225V226C62 226.796 62.3161 227.559 62.8787 228.121C63.4413 228.684 64.2044 229 65 229H66M74 224V229C74 229.796 73.6839 230.559 73.1213 231.121C72.5587 231.684 71.7956 232 71 232H70M66 237V221C66 220.47 66.2107 219.961 66.5858 219.586C66.9609 219.211 67.4696 219 68 219C68.5304 219 69.0391 219.211 69.4142 219.586C69.7893 219.961 70 220.47 70 221V237M63 237H73" stroke="#FF8811" stroke-width="2" stroke-linecap="round" stroke-linejoin="round"/>
<path d="M138 221H140.5L142.132 225.897C142.53 227.092 143.294 228.131 144.316 228.868C145.338 229.604 146.566 230 147.825 230H150.5C151.959 230 153.358 229.421 154.389 228.389C155.421 227.358 156 225.959 156 224.5C156 223.041 155.421 221.642 154.389 220.611C153.358 219.579 151.959 219 150.5 219H150V225M142 225H156M145 233L146 230M152 230L153 233M142 235C142 235.53 142.211 236.039 142.586 236.414C142.961 236.789 143.47 237 144 237C144.53 237 145.039 236.789 145.414 236.414C145.789 236.039 146 235.53 146 235C146 234.47 145.789 233.961 145.414 233.586C145.039 233.211 144.53 233 144 233C143.47 233 142.961 233.211 142.586 233.586C142.211 233.961 142 234.47 142 235ZM152 235C152 235.53 152.211 236.039 152.586 236.414C152.961 236.789 153.47 237 154 237C154.53 237 155.039 236.789 155.414 236.414C155.789 236.039 156 235.53 156 235C156 234.47 155.789 233.961 155.414 233.586C155.039 233.211 154.53 233 154 233C153.47 233 152.961 233.211 152.586 233.586C152.211 233.961 152 234.47 152 235Z" stroke="#FF8811" stroke-width="2" stroke-linecap="round" stroke-linejoin="round"/>
<path d="M236 219V229C236 231.122 235.157 233.157 233.657 234.657C232.157 236.157 230.122 237 228 237C225.878 237 223.843 236.157 222.343 234.657C220.843 233.157 220 231.122 220 229V219L223.432 222.432C224.772 221.497 226.366 220.997 228 221C229.769 221 231.403 221.574 232.728 222.546L236 219Z" stroke="#FF8811" stroke-width="2" stroke-linecap="round" stroke-linejoin="round"/>
<path d="M218 232H223L219 236M238 232H233L237 236M225 227V227.01M231 227V227.01M227 232C227 232.265 227.105 232.52 227.293 232.707C227.48 232.895 227.735 233 228 233C228.265 233 228.52 232.895 228.707 232.707C228.895 232.52 229 232.265 229 232C229 231.735 228.895 231.48 228.707 231.293C228.52 231.105 228.265 231 228 231C227.735 231 227.48 231.105 227.293 231.293C227.105 231.48 227 231.735 227 232Z" stroke="#FF8811" stroke-width="2" stroke-linecap="round" stroke-linejoin="round"/>
</g>
</svg>
