<svg width="200" height="200" viewBox="0 0 200 200" fill="none" xmlns="http://www.w3.org/2000/svg">
<rect width="200" height="200" rx="100" fill="#C62423"/>
<path d="M136.479 84.072C136.479 89.2773 135.284 94.056 132.895 98.408C130.505 102.675 126.836 106.131 121.887 108.776C116.937 111.421 110.793 112.744 103.455 112.744H89.8865V145H67.9985V55.144H103.455C110.623 55.144 116.681 56.3813 121.631 58.856C126.58 61.3307 130.292 64.744 132.767 69.096C135.241 73.448 136.479 78.44 136.479 84.072ZM101.791 95.336C105.972 95.336 109.087 94.3547 111.135 92.392C113.183 90.4293 114.207 87.656 114.207 84.072C114.207 80.488 113.183 77.7147 111.135 75.752C109.087 73.7893 105.972 72.808 101.791 72.808H89.8865V95.336H101.791Z" fill="white"/>
<path d="M118.614 146.024C114.774 146.024 111.616 144.915 109.142 142.696C106.752 140.392 105.558 137.576 105.558 134.248C105.558 130.835 106.752 127.976 109.142 125.672C111.616 123.368 114.774 122.216 118.614 122.216C122.368 122.216 125.44 123.368 127.83 125.672C130.304 127.976 131.542 130.835 131.542 134.248C131.542 137.576 130.304 140.392 127.83 142.696C125.44 144.915 122.368 146.024 118.614 146.024Z" fill="white"/>
</svg>
